<svg version="1" xmlns="http://www.w3.org/2000/svg" width="1172" height="1172" viewBox="0 0 879.000000 879.000000"><path d="M306.5 211.1c-1.6.6-6 .7-9.7.4-3.6-.3-16.2-.1-28 .5-24.3 1.3-38.1 3.9-45 8.5l-4.1 2.8-11.6-2.7c-13.9-3.2-18.1-3.2-44.4-.5-53.2 5.4-65.6 7.8-74.6 14.4-10.1 7.4-13.4 12.9-19.1 32.2-8.3 27.6-20.6 72.4-30.8 112.3l-9.6 37.5-.4 29.3c-.3 27.3-.2 29.9 1.9 38.7 1.8 7.9 3 10.7 7 16.5 2.7 3.8 4.9 7.8 4.9 8.8 0 1.1-3.3 13.3-7.4 27.3-4.1 14-8.2 28.1-9.1 31.4-2.7 9.4-3.3 46.6-1 58.7 3.1 15.5 11.2 24.1 25.9 27.5 7.2 1.6 9.3 1.7 19.1.7 6.1-.7 21.3-2.2 33.9-3.3 14-1.4 27.1-3.2 33.9-4.8 10.3-2.4 11.5-2.5 17.8-1.3 5.7 1.1 10.1 1 27.6-.4 11.4-.9 31.3-1.8 44.1-2.1 12.8-.2 23.8-.7 24.3-1.1.6-.3 12.2-.7 25.8-.9 26.6-.4 36.9-1.8 42.4-5.8 2.8-1.9 3.1-1.9 6.4-.3 1.9.9 7.4 2.5 12.3 3.6 15.4 3.4 45 2.3 53-2 .8-.5 2.5-.3 4 .5 1.4.7 7.9 2.5 14.5 4 11.2 2.6 13.9 2.8 40.1 3.3 26.2.4 28.7.3 37.7-1.7 9.5-2.2 9.5-2.2 13.4-.3 8.6 4.4 38.8 9.2 57.7 9.2 8.7 0 25.5-3.5 33.2-7 6.3-2.7 16.7-10.4 21.5-15.8 6.4-7.3 14-18.5 21.9-32.5 4-7 7.5-12.7 7.7-12.7.3 0 3.3 2.5 6.6 5.6 8.7 7.8 24.1 17.9 33.8 22 14.4 6.1 39.1 11.4 52.6 11.4 14-.1 38.5-5.4 52.5-11.5 17.4-7.5 34.8-21.3 46.5-37 10.4-13.7 15.7-24.8 20.1-41.5l3.6-13.5.1-23c0-22.7 0-23.2-3.3-35.8-4.8-19.4-12.9-34.8-25.9-49.8-12.3-14.2-31.2-27.3-47.8-33.2-10.3-3.7-29.7-7.8-39.6-8.4l-8.6-.6.8-4.1c.5-2.2.8-17.7.9-34.4 0-28.8-.1-30.9-2.5-41.4-3.1-13.8-5.8-19.7-13.2-29.3-6.3-8.3-16.8-16.7-27.3-22-12.7-6.4-52.4-14.4-65.6-13.2-8.6.8-31.3 6.2-39 9.3-3.5 1.4-6.9 2.2-7.6 1.8-.7-.5-4-2.8-7.3-5.2-10.7-7.9-15.2-9.6-38-14.8-9.3-2-15.5-2.8-27.5-3.1-14-.5-16.5-.3-26.4 2-7.4 1.8-11.6 2.3-13.1 1.7-1.3-.5-6.3-1.9-11.2-3.1-7.3-1.8-12.7-2.2-32.3-2.6-21.5-.4-24.3-.3-32.5 1.7-4.9 1.1-10.7 3.2-12.9 4.6l-3.9 2.6-3.7-2.1c-2-1.1-8.4-3.2-14.1-4.6-9.3-2.2-12.3-2.5-29.4-2.4-10.4 0-20.3.5-22 1zm46.2 44.5c1.5 1.1 3.6 3.6 4.5 5.5.9 1.9 4 16.6 7 32.6 2.9 16.1 5.5 29.3 5.8 29.3.3-.1 5.2-10.7 10.9-23.8 5.8-13 12.9-28.8 15.8-35.1l5.4-11.4 23.1.7c12.7.3 23.4.8 23.6 1.1.3.3-2.3 6.4-5.8 13.7-5.4 11.4-6.3 14.2-6.4 19.3-.1 7.3-2.4 11.9-10.1 21-3 3.6-5.5 7-5.5 7.7 0 .6-.6 1.9-1.3 2.7-1.8 2.2-16.5 34-27.6 59.8-5.9 13.8-9.1 22.5-9.1 24.9 0 6.9-4.1 12.3-12.7 16.8-3.6 1.8-20.3 2.3-24.6.7-6.4-2.5-4.7-14.9 2.5-18.4l3.2-1.6-2.9-.7c-4.8-1.1-9.2-4.2-10.8-7.7-.8-1.7-3.4-12.9-5.7-24.7-2.3-11.8-4.5-21.9-4.7-22.4-.3-.5-1.1.4-1.8 2s-4.4 6.5-8.3 10.8c-7.4 8.3-8.6 10.6-16.5 31.6-3.6 9.5-4.7 11.6-6.5 11.8l-2.3.3 2.5 2.9c3.8 4.6 4.4 16.2.9 18.3-.4.3-10.4.8-22.2 1.2l-21.4.7.6-5.7c.5-5.1 1.1-6.3 4.6-9.9 2.3-2.3 4.1-4.5 4.1-4.9 0-.4-2-.7-4.5-.7s-4.5-.2-4.5-.5c0-2.8 29.3-81.5 44.7-120.2 11.5-28.7 11.8-29.2 14.8-29.6 1.6-.3 11-.4 20.7-.3 16.2.1 17.9.3 20.5 2.2zm-58.7-1.1c0 .3-2.7 7.3-6.1 15.7-14 35.1-28.4 73.8-41.4 111.3l-7.3 21 .5 9.5c.6 14.3.7 14.2-15.2 15.6-7.2.7-15.9 1.3-19.4 1.5l-6.4.2-1.9-3.7c-2.6-5.1-2.8-12.8-.5-15.4 1.8-2 1.8-2-.2-1.5-1.2.3-2.1.1-2.1-.6 0-4.2 47.9-142.4 52-150 .9-1.8 2.1-2.1 8.8-2.2 4.2-.1 13.1-.5 19.7-.9 18.1-1 19.5-1 19.5-.5zm235.9 2.9c15.3 3.3 25.1 10.3 28.5 20.4 3 8.7 1.2 25.1-3.5 32.8-1 1.7-3.7 3.9-5.9 4.9-3.8 1.7-5.2 1.8-19.8.7-20.6-1.6-27.2-1.5-27.3 0 0 .7-.4.3-.9-1-2.2-5.2-7.8-1.5-12.9 8.6l-3 6 7.2.6c3.9.3 16.9 1.3 28.7 2.1 11.8.9 21.5 1.7 21.6 1.8.1.1-8.1 16.3-18.1 35.9-13.8 27.2-17.9 36-17 36.8.7.6 1.8 3.1 2.5 5.5 1.1 4 1.1 5.1-.6 8.6-1 2.3-2.8 4.5-4.1 5-2.3.8-57.4-.5-68.3-1.7-6.8-.7-15.4-4.5-17-7.4-.6-1.2-.9-3.4-.5-4.8.6-2.6 6.8-9.2 8.6-9.2 2.2 0 .6-2-2.5-3-4.6-1.5-11.3-7.4-13.8-12.4-3-5.7-3.6-17.4-1.3-25.2 2.3-8.2 13.5-33.6 28-63.9 11.3-23.4 26.2-36.6 47.2-42 7.4-1.9 33.6-1.3 44.2.9zM203.1 263c10.8 3.3 16.9 10 18.4 20.1 1.9 12.5-10.9 38.7-24 49.5l-4.4 3.6 2.4 3.7c6.6 9.9 5 27.7-3.9 44.6-4.1 7.9-13.5 17.3-21.9 22l-6.8 3.7 3.5 2.4c2.7 1.8 3.9 3.7 5.1 7.7 1.4 4.9 1.4 5.3-.2 6.5-5.7 4.4-17.1 7.5-34.8 9.7-7.1.8-21.5 2.7-31.8 4.1-13 1.8-19.2 2.3-19.9 1.6-2.6-2.6-1.1-6.5 4.6-11.7 3.5-3.2 5.6-6 5.6-7.4 0-2.5-.4-2.5-13-.7-5.2.8-9.6 1.3-9.8 1.2-1.3-1.4 39.3-151.3 41.7-153.9 1.4-1.4 63.1-8.4 75.7-8.6 4.6-.1 9.5.6 13.5 1.9zm448.6 6.6c38.5 5.9 50.5 27.5 33.3 60.2-4.4 8.4-4.9 9.8-3.5 10.8.8.6 2 2.5 2.6 4.3 1 2.7.8 3.9-1.5 8.4-3 6.2-22.6 27.1-27.2 28.9-2 .9-5.4 4.3-9.1 9.3-7.7 10.3-14.9 16.9-22.2 20.4-5.4 2.5-5.7 2.9-4.5 4.6 2.1 2.8 1.7 5.9-1.1 8.9-2.5 2.7-11.8 7.6-14.5 7.6-.8 0-2.8.8-4.4 1.8-2.8 1.7-3.7 1.7-20.2 0-18-1.8-25.7-3.8-32.5-8.3-5.9-3.9-6.5-5.8-2.8-9 1.8-1.4 4.9-3.6 7-4.8 2.1-1.2 3.9-2.5 3.9-2.8 0-.4-1.4-1.2-3-1.9-14.5-6-19.8-21.5-13.6-39.3 2.3-6.4 17.2-34.8 31.9-60.7 12.1-21.3 23.4-31.5 41.4-37.4 10.9-3.6 21.4-3.9 40-1zM266.8 432c10.6 1.8 17.1 4.7 22.9 10.6 2.9 2.9 5.3 5.9 5.2 6.6 0 .8-.5.6-1.2-.6-7.6-12-24.2-17.7-47.2-16.3-20.1 1.3-33 5-42.3 12.4l-5.7 4.4 4.7-4.4c2.6-2.4 6.8-5.4 9.3-6.6 12.1-5.7 38.5-8.6 54.3-6.1zm86.9 2.1c2.4 1.2 5.5 3.7 6.8 5.7 3.6 5.3 3.1 6.3-.6 1.3-5-7-8.6-8.1-27.8-8.1h-16.4l-3.7 3.9c-2.5 2.6-3.6 3.3-3.3 2.1.3-1.1 1.6-3.1 2.9-4.5 2.3-2.5 2.4-2.5 20-2.5 16 0 18.2.2 22.1 2.1zm50.8-1.4c-10.2.8-12.7 1.5-16 4.5-3.9 3.3-4.6 2.5-1.5-1.5 2.4-3 4.1-3.4 14-3.4 4.1 0 5.7.2 3.5.4zm366.5.7c12.6 1.5 23.1 3.6 26.1 5.2 6.9 3.5 15.1 13.3 21.2 25.5 3.4 6.6 6 13 6.1 15.3.2 2.1-.7 8.8-2 15-1.3 6.1-2.4 13.4-2.4 16.1 0 12.5-6 25.5-16.5 36-14.4 14.4-34.1 19.1-52.9 12.5-10.1-3.5-14.6-6.8-31.2-23.4-19.2-19.2-21.4-22.7-21.4-34 .1-11.5 6-31.6 10.9-36.6.8-.8 3.8-4.6 6.6-8.5 9.4-12.6 16.3-17.6 29.5-21.2 5.3-1.4 18.4-3.1 20.5-2.7.6.2 3 .5 5.5.8zm-335.1 2c1.2 1.1 2.1 2.6 2.1 3.4 0 1.2-.5 1.1-2.2-.5-3.9-3.4-5-3.8-15.3-4.4l-10-.7 11.6.2c10 .1 12 .4 13.8 2zm38.2-1.3c-7.1.6-12.9 1.8-18.5 3.8-12.3 4.3-12.6 4.4-6.1 1.2 7.6-3.8 17.9-6 27.5-5.9 7.3.1 7.2.1-2.9.9zm26.1 1.5c8.8 2 12.2 3.4 17.4 7.2 3.9 2.9 10.4 11.4 10.4 13.6-.1.6-.9-.3-1.8-2-6.1-11-17.4-17.3-34.9-19.3-5.4-.7-5.9-.9-2.5-1 2.4 0 7.5.6 11.4 1.5zM173.3 440c4.5 1.4 7.8 3.2 10.8 6.1l4.4 4.1-4-3c-7.9-5.8-15.2-8.2-25-8.2-9.7 0-56.7 4-60.2 5.1-1.8.6-4.4 2.4-5.8 4-1.6 2-2.5 2.5-2.5 1.5 0-.8 1-2.7 2.3-4.2 2.5-2.8.6-2.6 50.7-6.7 13.3-1.1 23-.6 29.3 1.3zm95.9-.9c11.6 2.5 18.5 8 20.8 16.9 1.8 6.5.6 12-5.6 27.6-3.1 7.6-11.4 28.9-18.5 47.3s-13.1 33.7-13.4 33.9c-.5.6-36.6 2.4-37.1 1.9-.2-.1 1.9-6.5 4.7-14.1 2.7-7.7 4.9-14 4.9-14 0-.1-3.5 0-7.8.2l-7.8.3-4.8 14c-2.7 7.7-5.2 14.1-5.5 14.4-1 .5-37.2 2.7-37.7 2.2s14.5-44.9 27.4-80.9c10.7-30.1 14.1-36.5 21.5-41.7 5.5-3.7 14.6-6.8 23.4-8 10-1.3 29.4-1.3 35.5 0zm80.7.7c6.3 3.2 6.9 4.9 11.4 32.5 2.3 14.1 4.4 25.7 4.7 25.7.3 0 1.7-3 3.2-6.6 1.5-3.6 7.4-16.8 13-29.5l10.3-22.9h9.1c5 0 13.8.3 19.7.6l10.5.7-3.3 7.1c-16.4 35.3-33.1 72.2-41.9 92.1l-10.5 24-15 .3c-16.7.3-19.9-.5-22.5-5.6-.8-1.6-3.3-13.6-5.6-26.8-2.2-13.1-4.4-24.8-4.7-25.9-.6-2-.6-2-1.4 0-.4 1.1-5.9 14.6-12.2 30l-11.4 28-5.4.7c-3 .3-11.4.6-18.7.7l-13.3.1.7-2.3c2.1-7 29.4-75.5 46-115.5l3.8-9.2h15c12.4 0 15.7.3 18.5 1.8zm151.6 2.7c8.2 2.2 15 6.8 18.2 12.3 5.7 9.7 3.2 31.2-4.2 35.3-1.6 1-4.3 1.9-6 2-3.8.4-35.5-1.1-35.5-1.7 0-.3 1.4-3.4 3-7.1 1.7-3.6 3-7.4 3-8.4 0-4.8-9.5-4.8-12.8-.1-1.9 2.7-20.1 41-25.4 53.5-1.6 3.8-2.8 7.8-2.6 9 .3 1.9.9 2.2 5.3 2.2 4.5 0 5.1-.3 7.3-3.5 2-3 2.2-4.2 1.7-10-.6-6-.4-7.1 2.9-14.2l3.5-7.7 6.3.4c3.5.3 14.4 1 24.3 1.6 9.8.5 18.1 1.1 18.2 1.3.3.3-25.4 54.8-27.6 58.6-.7 1.3-5.2 1.5-31.2 1.4-28.9-.1-30.7-.2-36.1-2.3-6.9-2.7-13.2-9.1-14.9-15.3-1.6-6.1-.5-16.4 2.7-24.5 7.2-17.9 25.7-57 29.8-62.7 7.5-10.5 17.6-17.7 29.7-21.1 7-2 31.7-1.4 40.4 1zm105.5 1c8.6 2 11.5 3.2 17.6 7.2 4.6 3 12.4 12.3 12.4 14.8 0 .5-1.3-1.1-2.8-3.6-8.4-13.2-23.4-19.1-48.7-19.3-11.7 0-13.8.2-21 2.7-8.2 2.9-15.4 7.1-22.8 13.3-2.3 2-1.5 1.1 1.8-2 6.8-6.5 17-11.9 26.5-14.1 7.9-1.8 27.2-1.2 37 1zm-430.4 5c10 6.2 12.4 17.1 6.9 31-3.5 9-10.1 18.9-16.2 24.7l-4.9 4.5 2.3 4.3c1.7 3.2 2.3 6 2.3 10.9 0 15.9-7.3 30.7-19.8 40-10 7.6-13.8 8.3-65 13.2-12.3 1.1-22.6 1.9-22.8 1.6-.8-.8 19.1-68.2 33.8-114 4.8-15 5.1-15.7 7.6-15.8 1.5 0 11.9-.9 23.2-1.9 11.3-1 26.6-1.8 34.1-1.7 13.2.2 13.7.3 18.5 3.2zm430.9 1.8c11.6 3.3 18.7 8.3 22.4 16.1 2.6 5.3 2.8 15.8.5 23.7-2.9 9.9-30.2 59.5-38.4 69.7-12 14.9-21.7 17.3-54.5 13.7-16-1.7-21.6-3.6-27-8.9-6.7-6.8-8.1-15.2-4.4-27.2 2.9-9.5 28.8-60.7 34.5-68.3 7.1-9.5 17.2-16.4 28.7-19.6 6.4-1.9 30.5-1.3 38.2.8zm-408.5.1c0 .2-.8 1-1.7 1.7-1.6 1.3-1.7 1.2-.4-.4 1.3-1.6 2.1-2.1 2.1-1.3zM52.7 579.2c-.3.8-.6.5-.6-.6-.1-1.1.2-1.7.5-1.3.3.3.4 1.2.1 1.9zm160.8 7.6c-.3.3-1.1 0-1.8-.7-.9-1-.8-1.1.6-.5 1 .3 1.5.9 1.2 1.2zm-55.4 1.9c1.3 1.6 1.2 1.7-.3.4-1-.7-1.8-1.5-1.8-1.7 0-.8.8-.3 2.1 1.3zm-105.4 4.5c-.3.8-.6.5-.6-.6-.1-1.1.2-1.7.5-1.3.3.3.4 1.2.1 1.9zm5.5 5.8c.6 0 .8.3.5.6-.9.9-5.7-2.4-5.7-3.8 0-.7.9-.2 2 1 1.2 1.2 2.6 2.2 3.2 2.2z"/><path d="M496.4 292c-2 .8-5.4 4.6-5.4 6.1 0 .3 1.3.6 3 .6 3.6 0 6.8 2.6 7.8 6.6l.8 2.9 2.7-5c1.5-2.7 2.7-5.9 2.7-7 0-4.1-6.3-6.4-11.6-4.2zM466.8 345.7c-3.9 8.2-7.7 16.6-8.5 18.8-1.3 3.8-1.3 4.1.9 5.9 2.8 2.2 8.9 1.7 12-1.1 3.9-3.5 5.1-7.1 4.2-13.2-1-7.2-.8-9.4 2-15l2.2-4.6-2.9-2.8-2.8-2.7-7.1 14.7zM473.3 406.2c3.3.7 6.6.7 10 .1 4.9-1 4.6-1-4.8-1.1-9.2 0-9.6.1-5.2 1zM156.9 298.7l-4.5.4-3.2 9.7c-1.8 5.4-3.2 10.1-3.2 10.5 0 1.2 6.9.8 10.3-.7 4.3-1.8 7.3-5.3 9.2-10.5.8-2.4 1.5-4.7 1.5-5.2 0-1.2-3.8-4.9-4.7-4.7-.5.1-2.8.3-5.4.5zM141 353.8c-4.2.4-6.5 2.1-5 3.6 1.7 1.7 1.1 4.6-1.5 7.2-2 2-7.5 16.5-7.5 19.8 0 1.4 10.4-.6 13.3-2.6 3.4-2.5 4.8-5.2 7.7-15.7 3-10.8 1.7-13.2-7-12.3zM626.8 305.1c-1.8 1-13.3 19.8-18.5 30.1-1.5 3.1-6.8 12.4-11.7 20.5-9.9 16.4-12.7 22.6-11 24.3.7.7 3 1.4 5.2 1.7 6.3.8 9.2-1.5 15.8-13.1 3.2-5.6 12-20.8 19.6-33.8 7.6-13.1 13.8-24.6 13.8-25.7 0-4.1-8.6-6.7-13.2-4zM773.6 488.2c-.3 1.3-1.4 5.3-2.5 9l-2 6.8h2.3c2 0 2.5-1.1 4.8-9l2.5-9h-2.2c-1.5 0-2.5.8-2.9 2.2zM759.2 511.6c-3.2 2.2-2.8 3.8.8 3 2.2-.4 3-.2 3 .9 0 .8-.6 1.5-1.4 1.5-2.3 0-2.7 2.7-.4 3.3 3.7 1 1.4 3.2-3.1 2.9-3.5-.3-4.1-.1-4.1 1.6 0 3.5 6.8 4.4 10.9 1.6 1.9-1.4 2.2-2.3 1.8-5.3-.3-2.3.1-4.4.9-5.5 3.2-4.4-3.4-7.5-8.4-4zM774.2 516.4c-3.4 3.5-6.2 6.9-6.2 7.5 0 .6 1.8 1.1 4.1 1.1 3.2 0 4 .3 3.5 1.5-.8 2.2 3 1.9 5.2-.3 2.3-2.3 3.5-5.2 2.1-5.2-1 0-.8-1.7.8-8.8 1-4.2-3.2-2.4-9.5 4.2zm2.9 3.9c-1.6 1.6-2.6 0-1-1.9.9-1.1 1.5-1.2 1.7-.4.2.6-.1 1.7-.7 2.3zM798 539.2c-14.1 13.2-33 15.4-51.2 6.2-2.6-1.3-5.5-2.4-6.5-2.4-2.8.1 2 3.7 9.7 7.4 6.1 2.9 7.3 3.1 17.5 3.1 10.3 0 11.4-.2 17.6-3.1 6.8-3.3 13.4-8.5 17-13.6 1.1-1.5 1.9-2.8 1.7-2.8-.2.1-2.8 2.4-5.8 5.2zM236.2 472.5c-2.2 1.9-4.1 5.6-7.5 14.7-2.5 6.8-4.8 13.1-5.2 14-.6 1.6-.1 1.8 4.6 1.8 9.5 0 9.2.3 14.8-15.2 4-10.9 4.9-14.4 4.1-15.9-1.6-2.8-7.1-2.5-10.8.6zM128.7 476.7c-.3.5-1.6 4.5-3 9l-2.5 8.3h4c5.4 0 9.4-2.6 11.8-7.5 2.3-4.7 2.5-7.6.8-9.3-1.3-1.3-10.4-1.7-11.1-.5zM114.8 523.2c-.9.7-3.1 6-4.8 11.7-1.8 5.7-3.4 11-3.7 11.8-.4 1.1.4 1.3 4.2.8 8-.9 10.1-3.2 13.5-14.7 1.9-6.3 2-8 1-9.3-1.5-1.8-8-2-10.2-.3zM577.7 481.2c-4.1 4.1-31.7 58.2-31.7 62 0 2.6 1.6 3.8 5 3.8 4.8 0 6.9-2.3 13.8-15.4 25.3-47.8 25.7-48.7 23-51.4-2-2-7.7-1.4-10.1 1z"/></svg>